<?xml version="1.0" encoding="UTF-8"?><svg id="Capa_1" xmlns="http://www.w3.org/2000/svg" viewBox="0 0 646.88 226.87"><defs><style>.cls-1{fill:#ff8100;}.cls-2{fill:#1f9b5c;}</style></defs><g><circle class="cls-1" cx="128.3" cy="29.13" r="29.13"/><g><path class="cls-2" d="m177.19,69.74c-1.2.45-2.74,1.51-4.99,3.27-16.19,12.65-27.25,30.2-33.73,50.61.81,4,1.51,9.5,2.02,15.72,1.02,12.39,1.31,27.65.38,39.72,9.9-41.4,40.61-69.4,57.48-75.88-5.88-11.48-12.92-22.98-21.16-33.45Z"/><path class="cls-1" d="m160.49,51.71c-4.85,3.6-11.36,10.39-15.46,17.36-7,11.9-11.38,25.16-7.85,46.17,1.69-14.23,21.59-42.24,36.79-49.47-4.2-5.01-8.69-9.74-13.47-14.06Z"/></g><path class="cls-2" d="m130.67,208.81c11.2-45.72,5.23-163.35-77.94-180.66-10.87-2.26-20.72,5.21-25.2,9.73-9.75,9.86-16.24,16.41-27.54,27.88,99.03,11.86,114.23,101.03,98.19,161.1,11.84-4.98,23.93-11.05,32.48-18.06Z"/></g><g><path class="cls-2" d="m213.13,187.24c-.25-.39-.8-.47-1.13-.15-3.01,2.96-7.9,4.75-12.71,4.75-7.72,0-16.35-5.24-16.35-16.73,0-9.83,6.88-17.09,16.07-17.09,5.14,0,10.33,1.88,13.53,5.53.32.37.89.36,1.17-.04l8.18-11.58c.39-.56.31-1.33-.22-1.77-5.64-4.67-13.58-7.86-23.04-7.86-18.01,0-33.17,13.88-33.17,32.72,0,17.65,14.05,32.44,33.63,32.44,7.96,0,15.28-2.79,20.93-6.98.55-.41.68-1.18.31-1.75l-7.22-11.5Z"/><path class="cls-2" d="m275.58,205.9h-13.05c-.64,0-.92-.37-.92-.83v-5.79c-1.56,4.78-7.35,7.26-12.96,7.26-12.31,0-21.69-8.82-21.69-23.9,0-13.88,9.74-23.71,21.41-23.71,6.25,0,11.03,3.68,12.41,7.26v-5.61c0-.83.18-1.1.74-1.1h14.15c.46,0,.64.37.64.83v44.3c0,1.01-.28,1.29-.74,1.29Zm-23.99-32.63c-5.79,0-9.37,4.14-9.37,9.83s4.23,9.47,9.37,9.47,9.19-3.86,9.19-9.65-4.14-9.65-9.19-9.65Z"/><path class="cls-2" d="m306.55,207.56c-11.67,0-17.19-4.23-20.13-10.75-.18-.64-.18-1.19.28-1.38l10.02-3.86c.37-.09.74.09.83.37,1.01,2.76,4.04,4.96,7.44,4.96,4.14,0,5.97-1.65,5.97-3.68,0-2.48-1.93-3.77-9.01-5.51-8.73-2.21-14.8-5.33-14.8-14.52,0-9.65,7.9-15.07,20.68-15.07,10.2,0,16.27,3.86,18.1,9.93.09.55.09,1.1-.46,1.29l-10.2,3.58c-.55.28-.64.28-1.01-.28-1.56-2.48-3.95-4.14-6.98-4.14-3.58,0-5.15,1.19-5.15,3.22,0,1.84,2.11,2.76,10.02,4.32,9.19,1.93,15.53,5.79,15.53,14.43,0,10.29-7.72,17.09-21.14,17.09Z"/><path class="cls-2" d="m383.56,205.9h-13.05c-.64,0-.92-.37-.92-.83v-5.79c-1.56,4.78-7.35,7.26-12.96,7.26-12.31,0-21.69-8.82-21.69-23.9,0-13.88,9.74-23.71,21.41-23.71,6.25,0,11.03,3.68,12.41,7.26v-5.61c0-.83.18-1.1.74-1.1h14.15c.46,0,.64.37.64.83v44.3c0,1.01-.28,1.29-.74,1.29Zm-23.99-32.63c-5.79,0-9.37,4.14-9.37,9.83s4.23,9.47,9.37,9.47,9.19-3.86,9.19-9.65-4.14-9.65-9.19-9.65Z"/><path class="cls-2" d="m412.93,205.83c-.42,0-.78-.25-.94-.64-2.03-5.21-12.19-31.34-17.23-44.23-.44-1.12-.55-1.47.37-1.47h15.9c.46,0,.83,0,1.01.64,3.42,11.18,7.63,25.93,7.63,25.93,0,0,4.13-15.03,7.26-25.65.18-.55.46-.92.92-.92h15.44c.83,0,.74.33.37,1.29-5.74,14.66-15.67,40.02-17.38,44.39-.15.39-.52.66-.94.66h-12.41Z"/><path class="cls-2" d="m492.83,185.5c-.18.92-.46,1.1-1.84,1.1h-27.48c.09,4.96,3.95,8.09,9.37,8.09,4.32,0,7.26-2.76,8.82-4.6.28-.37.83-.18,1.29.46,1.93,2.67,4.5,6.34,6.34,9.19.55.83.28,1.47-.46,2.11-2.85,2.48-9.19,5.42-16.27,5.42-13.97,0-24.17-9.19-24.17-24.81,0-13.97,9.28-24.17,24.17-24.17,11.3,0,20.77,8,20.77,20.95,0,3.22-.18,4.69-.55,6.25Zm-21.6-14.8c-5.05,0-7.26,3.95-7.72,7.81h15.53c-.37-4.87-3.12-7.81-7.81-7.81Z"/><path class="cls-2" d="m537.87,160.14c.09-.33-.1-.68-.43-.77-1.46-.38-3.14-.56-4.78-.56-4.67,0-11.67,1.69-13.6,6.28v-4.5c0-1.1-.09-1.1-.74-1.1h-13.69q-.74,0-.74,1.1v44.02c0,1.29.09,1.29.74,1.29h14.15c.55,0,.73-.18.73-1.01v-20.13c0-12.6,6.49-12.63,9.34-12.63,1.93,0,3.82.85,4.55,1.47.29.25.76-.02.86-.39l3.6-13.08Z"/><path class="cls-2" d="m590.06,205.99h-12.77c-.83,0-1.01-.37-1.01-1.47v-2.67c-2.39,3.31-7.08,4.69-11.76,4.69-13.51,0-22.15-8.64-22.15-23.9s9.19-23.71,21.69-23.71c4.5,0,9.47,1.84,11.76,4.69v-20.13c0-1.01.09-1.19.74-1.19h13.79c.64,0,.73,0,.73,1.29v60.93c0,1.1-.28,1.47-1.01,1.47Zm-23.16-32.72c-5.05,0-9.28,3.68-9.28,9.56s4.04,9.74,9.56,9.74c5.05,0,9.01-3.77,9.01-9.65s-4.14-9.65-9.28-9.65Z"/><path class="cls-2" d="m646.33,185.5c-.18.92-.46,1.1-1.84,1.1h-27.48c.09,4.96,3.95,8.09,9.37,8.09,4.32,0,7.26-2.76,8.82-4.6.28-.37.83-.18,1.29.46,1.93,2.67,4.5,6.34,6.34,9.19.55.83.28,1.47-.46,2.11-2.85,2.48-9.19,5.42-16.27,5.42-13.97,0-24.17-9.19-24.17-24.81,0-13.97,9.28-24.17,24.17-24.17,11.3,0,20.77,8,20.77,20.95,0,3.22-.18,4.69-.55,6.25Zm-21.6-14.8c-5.05,0-7.26,3.95-7.72,7.81h15.53c-.37-4.87-3.12-7.81-7.81-7.81Z"/></g></svg>