<?xml version="1.0" encoding="UTF-8"?><svg id="Capa_1" xmlns="http://www.w3.org/2000/svg" viewBox="0 0 326.59 249.23"><defs><style>.cls-1{fill:#2e2e2a;}</style></defs><path class="cls-1" d="m10.09,92.5h46.25l2.8-17.4-6.33,1.83h-23.73l-1.83-1.83v-19.96l1.83-1.7h7.79l5.96,1.95v-19.35l-5.96,1.95h-7.79l-1.83-1.83v-19.11l1.83-1.83h23.73l6.33,1.83L56.34,0H10.09l1.95,5.84v80.7l-1.95,5.96Zm258.28,0h46.25l2.8-17.4-6.33,1.83h-23.73l-1.83-1.83v-19.96l1.83-1.7h7.79l5.96,1.95v-19.35l-5.96,1.95h-7.79l-1.83-1.83v-19.11l1.83-1.83h23.73l6.33,1.83-2.8-17.04h-46.25l1.95,5.84v80.7l-1.95,5.96ZM156.63,15.58l1.83,1.7v69.38l-1.95,5.84h19.35l-1.95-5.84V17.28l1.7-1.7h11.56l6.57,1.7-2.92-17.28h-49.54l-2.8,17.28,6.33-1.7h11.81Zm48.2,76.92h19.11l-1.95-5.84v-27.39l1.83-1.83h4.99l1.22,1.46,6.57,27.87-1.34,5.72h19.11l-2.43-6.21-6.69-28.85,7.79-7.79V7.55l-7.79-7.55h-40.41l1.95,5.96v80.7l-1.95,5.84Zm17.16-75.22l1.83-1.7h11.93l1.83,1.7v23.12l-1.83,1.7h-11.93l-1.83-1.7v-23.12ZM70.46,92.5h19.11l-1.95-5.84v-50.39l22.4,56.23h17.4l-1.95-5.84V5.96l1.95-5.96h-19.35l1.95,5.96v50.39L87.62,0h-17.16l1.95,5.96v80.7l-1.95,5.84Zm154.27,79.44h23.73l6.33,1.83-2.8-17.04h-46.25l1.95,5.84v80.7l-1.95,5.96h46.25l2.8-17.4-6.33,1.83h-23.73l-1.83-1.83v-19.96l1.83-1.7h7.79l5.96,1.95v-19.35l-5.96,1.95h-7.79l-1.83-1.83v-19.11l1.83-1.83Zm71.81,14h19.35l-2.07-5.84v-15.82l-7.67-7.55h-30.79l-8.03,7.55v38.71l8.03,7.79h21.18l1.83,1.83v19.47l-1.83,1.7h-11.81l-1.83-1.7v-6.09l1.95-5.84h-19.23l1.7,5.84v15.58l8.03,7.67h30.79l7.67-7.67v-38.58l-7.67-7.67h-21.42l-1.83-1.83v-19.47l1.83-1.7h11.81l1.83,1.7v6.09l-1.83,5.84Zm24.08-68.87H5.84l-5.84-1.95v17.24l5.84-1.95h314.78l5.97,1.95v-17.24l-5.97,1.95Zm-218.82,45.02l1.7-5.36h-21.06l1.7,5.36-18.99,80.94-3.04,6.21h19.35l-1.34-3.65,3.41-14.12,1.83-1.83h15.22l1.83,1.83,3.41,14.12-1.34,3.65h19.35l-3.04-6.21-18.99-80.94Zm-4.26,51.97h-9.01l-1.46-1.34,5.96-29.58,5.96,29.58-1.46,1.34ZM9.05,156.73l1.95,5.96v80.7l-1.95,5.84h19.11l-1.95-5.84v-27.26l1.83-1.83h21.42l7.79-7.79v-42.23l-7.79-7.55H9.05Zm32.62,40.41l-1.83,1.7h-11.81l-1.83-1.7v-23.13l1.83-1.7h11.81l1.83,1.7v23.13Zm149.71-40.41h-19.35l1.95,5.96v50.39l-22.39-56.35h-17.16l1.95,5.96v80.7l-1.95,5.84h19.11l-1.95-5.84v-50.39l22.39,56.23h17.41l-1.95-5.84v-80.7l1.95-5.96Z"/></svg>