<?xml version="1.0" encoding="UTF-8"?><svg id="Capa_1" xmlns="http://www.w3.org/2000/svg" viewBox="0 0 357.3 360.04"><defs><style>.cls-1{fill:#ff8038;}.cls-2{fill:#2c8c55;}</style></defs><g><path class="cls-1" d="m43.3,360.04c-6.02,0-11.66-.96-16.91-2.86-5.25-1.91-9.84-4.63-13.77-8.15-3.93-3.53-7.02-7.75-9.25-12.67-2.24-4.92-3.36-10.36-3.36-16.31v-.22c0-5.73,1.06-11.05,3.2-15.98,2.13-4.92,5.1-9.18,8.92-12.78,3.82-3.6,8.32-6.41,13.5-8.43,5.18-2.02,10.81-3.03,16.91-3.03,6.68,0,12.69,1.03,18.01,3.08,5.32,2.06,10.08,4.92,14.27,8.59l-14.43,17.41c-2.57-2.13-5.25-3.78-8.04-4.96-2.79-1.17-5.8-1.76-9.04-1.76-2.5,0-4.81.46-6.94,1.38-2.13.92-3.97,2.19-5.51,3.8-1.54,1.62-2.74,3.53-3.58,5.73-.85,2.2-1.27,4.63-1.27,7.27v.22c0,2.72.46,5.22,1.38,7.49.92,2.28,2.18,4.23,3.8,5.84,1.61,1.62,3.54,2.87,5.78,3.75,2.24.88,4.72,1.32,7.44,1.32,2.2,0,3.97-.15,5.29-.44,1.32-.29,2.5-.73,3.53-1.32v-7.71h-13.22v-16.42h37.35v35.61c-4.19,3.44-9.15,6.23-14.87,8.36-5.73,2.12-12.12,3.19-19.17,3.19Z"/><path class="cls-1" d="m94.42,277.96h25.12v80.43h-25.12v-80.43Z"/><path class="cls-1" d="m168.35,359.82c-4.92,0-9.42-.75-13.5-2.26-4.08-1.5-7.57-3.62-10.47-6.33-2.9-2.72-5.14-5.99-6.72-9.81-1.58-3.82-2.37-8.08-2.37-12.78v-.22c0-4.48.77-8.65,2.31-12.5,1.54-3.86,3.67-7.2,6.39-10.03,2.72-2.83,5.97-5.05,9.75-6.67,3.78-1.61,7.95-2.42,12.51-2.42,5.36,0,10.01.86,13.94,2.59,3.93,1.73,7.18,4.09,9.75,7.11,2.57,3.01,4.48,6.54,5.73,10.58,1.25,4.04,1.87,8.34,1.87,12.89v2.09c0,.73-.04,1.43-.11,2.09h-38.67c.88,2.64,2.31,4.65,4.3,6,1.98,1.36,4.33,2.04,7.05,2.04,2.28,0,4.39-.51,6.34-1.54,1.95-1.03,3.91-2.57,5.89-4.63l13.44,10.69c-3.01,3.89-6.7,7.05-11.07,9.48-4.37,2.42-9.83,3.64-16.36,3.64Zm6.39-36.69c-.29-2.87-1.21-5.09-2.75-6.67-1.54-1.58-3.41-2.37-5.62-2.37s-3.89.81-5.29,2.42c-1.4,1.62-2.28,3.82-2.64,6.61h16.31Z"/><path class="cls-1" d="m256.23,359.82c-4.54,0-8.21-.85-10.99-2.53-2.79-1.69-5.13-3.6-7.04-5.73v6.83h-25.12v-80.43h25.12l-.11,27.65c1.03-1.1,2.11-2.18,3.25-3.25,1.14-1.06,2.4-2,3.8-2.81,1.4-.81,2.97-1.47,4.74-1.98,1.76-.51,3.78-.77,6.06-.77,3.6,0,6.98.75,10.14,2.26,3.16,1.51,5.91,3.64,8.26,6.39,2.35,2.75,4.19,6.02,5.51,9.81,1.32,3.78,1.98,7.99,1.98,12.62v.22c0,4.78-.68,9.11-2.03,13-1.36,3.89-3.19,7.24-5.5,10.03-2.31,2.79-5.02,4.94-8.13,6.45-3.11,1.5-6.43,2.26-9.95,2.26Zm-8.6-20.6c2.85,0,5.22-1.03,7.12-3.08,1.9-2.06,2.85-4.63,2.85-7.71v-.22c0-3.09-.95-5.66-2.85-7.71-1.9-2.06-4.28-3.08-7.12-3.08s-5.22,1.03-7.12,3.08c-1.9,2.06-2.85,4.63-2.85,7.71v.22c0,1.47.26,2.87.77,4.19s1.2,2.48,2.08,3.47c.88.99,1.92,1.76,3.12,2.31,1.2.55,2.54.83,4,.83Z"/><path class="cls-1" d="m314.99,359.82c-2.87,0-5.51-.4-7.93-1.21s-4.52-2-6.28-3.58c-1.76-1.58-3.12-3.51-4.08-5.78-.96-2.27-1.43-4.92-1.43-7.93v-.22c0-6.02,2.06-10.65,6.17-13.88,4.11-3.23,9.7-4.85,16.75-4.85,1.25,0,2.57.06,3.97.17,1.4.11,2.74.28,4.02.5,1.28.22,2.48.46,3.58.72,1.1.26,1.98.53,2.64.83v-.99c0-2.79-.88-4.94-2.64-6.45-1.76-1.5-4.59-2.26-8.48-2.26-3.08,0-5.97.31-8.65.94-2.68.63-5.34,1.45-7.99,2.48l-4.41-16.64c3.53-1.32,7.31-2.39,11.35-3.2,4.04-.81,8.71-1.21,13.99-1.21,6.17,0,11.29.64,15.37,1.93,4.08,1.29,7.44,3.25,10.08,5.89,2.28,2.28,3.89,4.92,4.85,7.93.95,3.01,1.43,6.72,1.43,11.13v34.26h-25.01v-6.06c-2.13,2.28-4.61,4.09-7.44,5.45-2.83,1.36-6.11,2.04-9.86,2.04Zm9.92-14.43c2.2,0,4.04-.83,5.51-2.48,1.47-1.65,2.2-3.91,2.2-6.78v-2.53c-.74-.29-1.62-.53-2.64-.72-1.03-.18-2.06-.27-3.08-.27-2.5,0-4.41.64-5.73,1.93-1.32,1.29-1.98,2.88-1.98,4.79v.22c0,1.76.55,3.18,1.65,4.24,1.1,1.06,2.46,1.6,4.08,1.6Z"/></g><g><path class="cls-2" d="m273.53,77.13c-9.92,0-18.4-6.13-21.89-14.81-2.38.81-4.92,1.26-7.57,1.26-13.03,0-23.6-10.56-23.6-23.6,0-.83.05-1.65.13-2.46-9.75-2.9-16.86-11.92-16.86-22.61,0-4.27,1.15-8.26,3.13-11.72-8.83-2.08-18.02-3.21-27.49-3.21-57.57,0-105.61,40.82-116.75,95.1,1.58-.05,3.15-.13,4.74-.13,23.12,0,44.87,5.82,63.9,16.05,9.31-25.96,26.33-48.21,48.31-64.05,21.79,15.71,38.73,37.72,48.09,63.4,18.73-9.82,40.02-15.4,62.63-15.4,1.96,0,3.89.08,5.83.16-1.68-8.18-4.2-16.05-7.46-23.52-4.1,3.44-9.38,5.52-15.16,5.52Z"/><path class="cls-2" d="m298.54,119.19c0-2.71-.12-5.4-.3-8.06-2.21-.12-4.43-.2-6.67-.2-27.76,0-53.29,9.52-73.55,25.43-4.08-23.27-15.1-45.55-33.08-63.53-1.92-1.92-3.9-3.73-5.91-5.49-1.65,1.48-3.27,3-4.86,4.58-18.25,18.25-29.34,40.95-33.27,64.61-20.29-16.02-45.9-25.61-73.76-25.61-2.24,0-4.46.07-6.67.2-.18,2.67-.3,5.35-.3,8.06,0,64.11,50.62,116.37,114.06,119.06,1.7.08,3.4.13,5.11.13,0,0,0,0,.01,0,0,0,0,0,0,0s0,0,0,0c0,0,0,0,.01,0,1.71,0,3.41-.05,5.11-.13,63.45-2.69,114.06-54.95,114.06-119.06Zm-111.45-12.4c8.36,14.31,12.87,30.25,13.54,46.31-9.15,10.79-16.41,23.22-21.28,36.8-4.85-13.54-12.09-25.94-21.2-36.71.5-15.97,4.81-31.83,12.91-46.13l8.01,61.82,8.03-62.09Zm91.6,23.91h0s0,0,0,0h0Zm-14.13,2.85l-38.72,50.6,50.16-39.29c-9.24,34.94-36.84,62.39-71.88,71.38-1.79.46-3.62.86-5.45,1.22-.42.08-.85.17-1.27.24-1.85.34-3.72.65-5.61.89.16-1.42.36-2.84.58-4.25.09-.6.21-1.18.32-1.78.14-.8.27-1.61.43-2.41.16-.77.34-1.53.51-2.3.14-.61.26-1.22.41-1.82.22-.88.46-1.74.7-2.61.13-.48.25-.97.39-1.44.28-.97.6-1.93.91-2.89.12-.36.22-.73.34-1.08.35-1.04.73-2.07,1.12-3.1.1-.27.19-.54.29-.8.43-1.12.89-2.23,1.36-3.33.07-.16.13-.33.2-.49.5-1.16,1.03-2.3,1.57-3.43.05-.1.09-.21.14-.31.57-1.18,1.17-2.35,1.79-3.51.03-.05.05-.1.07-.15.64-1.19,1.3-2.37,1.99-3.54,0,0,.01-.02.02-.03,4.15-7.05,9.15-13.55,14.84-19.36,12.17-12.42,27.55-21.66,44.79-26.43Zm-85.52-38.55h0Zm-96.37,49.85l50.15,39.29-38.71-50.6c17.45,4.83,32.99,14.25,45.23,26.9,4.67,4.82,8.85,10.11,12.48,15.79.01.02.02.04.04.06.71,1.11,1.4,2.24,2.06,3.38.03.06.06.12.1.17.64,1.11,1.27,2.22,1.87,3.36.05.1.1.21.16.31.57,1.09,1.13,2.19,1.67,3.31.08.16.15.33.23.49.5,1.06.99,2.13,1.46,3.21.1.22.18.45.28.68.43,1.03.86,2.06,1.26,3.1.12.31.22.62.34.93.36.97.72,1.95,1.05,2.93.14.4.25.81.38,1.22.29.91.59,1.81.85,2.73.15.51.27,1.02.41,1.53.23.83.46,1.65.66,2.49.15.63.28,1.27.43,1.9.16.73.34,1.46.49,2.19.16.82.3,1.65.45,2.47.1.56.21,1.12.3,1.68.22,1.4.41,2.81.58,4.22-1.81-.23-3.59-.52-5.37-.84-.26-.05-.51-.1-.77-.15-1.72-.33-3.43-.7-5.12-1.11-35.54-8.7-63.63-36.34-72.96-71.64Z"/></g></svg>