<?xml version="1.0" encoding="UTF-8"?><svg id="Capa_1" xmlns="http://www.w3.org/2000/svg" viewBox="0 0 520.4 366.03"><defs><style>.cls-1{fill:#c99200;}.cls-2{fill:#1d3745;}.cls-3{stroke:#ffd080;}.cls-3,.cls-4,.cls-5,.cls-6,.cls-7{stroke-linecap:round;stroke-linejoin:round;}.cls-3,.cls-4,.cls-5,.cls-6,.cls-7,.cls-8{fill:none;}.cls-3,.cls-7{stroke-width:4.37px;}.cls-9{fill:#ffcd78;}.cls-4{stroke-width:11.13px;}.cls-4,.cls-5,.cls-6,.cls-7,.cls-8{stroke:#1d3745;}.cls-10{fill:#ffaf00;}.cls-5{stroke-width:5.89px;}.cls-6{stroke-width:9.97px;}.cls-8{stroke-miterlimit:10;stroke-width:8.75px;}</style></defs><g><line class="cls-8" y1="361.65" x2="520.4" y2="361.65"/><line class="cls-8" y1="252.32" x2="520.4" y2="252.32"/><g><line class="cls-8" x1="456.69" y1="310.27" x2="520.4" y2="310.27"/><line class="cls-8" x1="453.15" y1="295.17" x2="486.29" y2="282.73"/><line class="cls-8" x1="453.15" y1="324.96" x2="486.29" y2="337.39"/></g><g><line class="cls-8" x1="63.71" y1="309.86" y2="309.86"/><line class="cls-8" x1="67.26" y1="324.96" x2="34.12" y2="337.39"/><line class="cls-8" x1="67.26" y1="295.17" x2="34.12" y2="282.73"/></g><g><path class="cls-2" d="m88.48,281.08h19.54v21.87l16.62-21.87h22.71l-20.37,25.38,20.79,33.07h-23.3l-11.44-18.53-5.01,6.09v12.44h-19.54v-58.45Z"/><path class="cls-2" d="m167.81,281.08h49.85v16.03h-30.65v5.93h28.56v14.11h-28.56v6.35h31.06v16.03h-50.27v-58.45Z"/><path class="cls-2" d="m241.71,281.08h19.54v41.75h27.47v16.7h-47.01v-58.45Z"/><path class="cls-2" d="m311.34,281.08h19.54v41.75h27.47v16.7h-47.01v-58.45Z"/><path class="cls-2" d="m406.12,340.62c-5.96,0-11.51-.82-16.66-2.46-5.15-1.64-9.59-4.1-13.32-7.39l10.44-12.44c3.17,2.45,6.51,4.2,10.02,5.26,3.51,1.06,6.98,1.58,10.44,1.58,1.78,0,3.06-.22,3.84-.67.78-.44,1.17-1.06,1.17-1.84v-.17c0-.84-.57-1.53-1.71-2.09-1.14-.56-3.27-1.14-6.39-1.76-3.29-.67-6.42-1.45-9.39-2.34-2.98-.89-5.59-2.03-7.85-3.43-2.25-1.39-4.05-3.13-5.39-5.22-1.34-2.09-2.01-4.69-2.01-7.81v-.17c0-2.78.54-5.37,1.63-7.77,1.08-2.39,2.67-4.48,4.76-6.26,2.09-1.78,4.67-3.17,7.76-4.18,3.09-1,6.64-1.5,10.65-1.5,5.68,0,10.65.67,14.9,2.01,4.26,1.33,8.09,3.34,11.48,6.01l-9.52,13.2c-2.78-2.01-5.72-3.47-8.81-4.39-3.09-.92-6-1.38-8.73-1.38-1.45,0-2.52.22-3.21.67s-1.04,1.03-1.04,1.76v.17c0,.39.11.75.33,1.08s.63.65,1.21.96c.59.31,1.38.6,2.38.88,1,.28,2.28.56,3.84.84,3.73.67,7.13,1.47,10.19,2.42,3.06.94,5.69,2.16,7.89,3.63,2.2,1.48,3.89,3.25,5.09,5.3,1.2,2.06,1.8,4.57,1.8,7.51v.17c0,3.06-.61,5.82-1.84,8.26-1.23,2.45-2.95,4.52-5.18,6.22-2.23,1.7-4.94,3.01-8.14,3.92-3.2.92-6.75,1.38-10.65,1.38Z"/></g></g><g><g><path class="cls-10" d="m232.32,18c-60.09,20.84-106.94,58.03-104.93,93.76.91,16.16,2.34,30.27,1.21,36.69-.83,4.7-.98,7.7-1.43,10.87-.45,3.17,1.13,4.76,5.44,4.76s12.12.57,12.23,4.3c.11,3.74-.11,5.89-.11,7.93s1.93,6.11,5.78,5.55c3.85-.57,12.91-.68,15.85,1.7,2.94,2.38,3.17,2.49,3.62,6s2.04,4.98,4.98,4.76c10.3-.79,14.15-1.36,18-.68s8.95,2.6,10.64,4.64c1.7,2.04,4.89,2.27,6.91,1.59,7.02-2.38,15.06-3.51,19.59-3.96,4.53-.45,7.36-.45,10.98.23,3.62.68,7.01,1.1,10.42-.23,11.66-4.53,9.29-4.53,15.29-6s14.95-4.19,19.7-3.96c4.76.23,7.71-2.16,9.97-4.08,7.47-6.34,18.68-13.02,23.44-13.48,4.76-.45,12-2.49,13.25-6.91,1.25-4.42,7.93-9.63,9.74-11.1,1.81-1.47,11.89-6.11,15.85-6.91,3.96-.79,2.83-5.66,1.93-7.36-.91-1.7-.08-3.01,1.13-4.42,4.87-5.66,4.64-6.11,8.49-7.93s9.51-4.08,11.1-6.79c1.59-2.72-.68-4.87-3.62-9.74,1.47-4.3,2.38-6.34,4.87-7.81s8.49-4.3,9.17-6.68c.68-2.38-1.02-5.1-2.38-6.79s-3.77-6.04-4.15-6.57c0-1.89.68-2.87,3.17-3.93,2.49-1.06,5.22-3.38,1.51-7.32-7.1-7.55-10.95-16.38-19.93-31.71C348.98.52,293.49-3.21,232.32,18Z"/><g><g><path class="cls-6" d="m233.68,18c-60.09,20.84-106.94,58.03-104.93,93.76.91,16.16,2.34,30.27,1.21,36.69-.83,4.7-.98,7.7-1.43,10.87s1.13,4.76,5.44,4.76,12.12.57,12.23,4.3c.11,3.74-.11,5.89-.11,7.93s1.93,6.11,5.78,5.55c3.85-.57,12.91-.68,15.85,1.7,2.94,2.38,3.17,2.49,3.62,6,.45,3.51,2.04,4.98,4.98,4.76,10.3-.79,14.15-1.36,18-.68s8.95,2.6,10.64,4.64c1.7,2.04,4.89,2.27,6.91,1.59,7.02-2.38,15.06-3.51,19.59-3.96,4.53-.45,7.36-.45,10.98.23,3.62.68,7.01,1.1,10.42-.23,11.66-4.53,9.29-4.53,15.29-6,6-1.47,14.95-4.19,19.7-3.96,4.76.23,7.71-2.16,9.97-4.08,7.47-6.34,18.68-13.02,23.44-13.48,4.76-.45,12-2.49,13.25-6.91,1.25-4.42,7.93-9.63,9.74-11.1,1.81-1.47,11.89-6.11,15.85-6.91,3.96-.79,2.83-5.66,1.93-7.36-.91-1.7-.08-3.01,1.13-4.42,4.87-5.66,4.64-6.11,8.49-7.93s9.51-4.08,11.1-6.79c1.59-2.72-.68-4.87-3.62-9.74,1.47-4.3,2.38-6.34,4.87-7.81,2.49-1.47,8.49-4.3,9.17-6.68.68-2.38-1.02-5.1-2.38-6.79-1.36-1.7-3.77-6.04-4.15-6.57,0-1.89.68-2.87,3.17-3.93s5.22-3.38,1.51-7.32c-7.1-7.55-10.95-16.38-19.93-31.71C350.34.52,294.85-3.21,233.68,18Z"/><path class="cls-6" d="m172.7,190.77c.3-6.04-.13-22.25-4.58-22.25-1.38,0-3.77-.11-6.2-1.31"/><path class="cls-6" d="m186.12,172.94c5.84,3.03,13.72,2.94,16.11,1.97,1.47,7.47,1.63,16.33,2.16,21.37"/><path class="cls-6" d="m222.94,174.8c7.02,1.36,13.14.57,16.99-2.49,2.87,6.64,4.87,18.38,4.83,22.5"/><path class="cls-6" d="m285,182.02c-1.51-3.02-5.71-15.45-6.34-17.51-.66-2.17-9.46,2.41-15.47,3.41"/><path class="cls-6" d="m319.89,165.89c-2.49-4.76-5.89-14.04-6.79-17.44-4.51,4.9-11.76,7.47-15.63,8.83"/><path class="cls-6" d="m349.28,142.26c-2.87-5.13-7.34-12.98-7.49-14.19-4.83,4.53-9.97,9.51-13.74,10.42"/><path class="cls-6" d="m368.51,119.01c-1.05-1.07-6.79-8.61-6.79-9.97-1.06,3.77-4.98,7.4-7.1,8.3"/><path class="cls-6" d="m381.95,94.7c-2.87-4.38-4.38-6.64-4.38-6.64"/><path class="cls-6" d="m372.16,93.09c2.26-3.32,4.57-7.05,5.33-13.14"/><path class="cls-6" d="m132.82,90.93c-1.34,9.31.72,17.31,5.39,23.98,18.95,27.08,80.88,32.09,132.31,12.71,62.51-23.55,81.08-58.43,84.7-73.38"/><path class="cls-6" d="m130.93,125.99c18.9,31.19,87.66,40.58,145.16,15.83"/><path class="cls-6" d="m358.4,40.95c-1.81-37.64-68.44-44.44-124.71-22.95"/><path class="cls-6" d="m147.72,126.67c-1.4,3.64-3,10.25-1.64,13.75"/><path class="cls-6" d="m165.46,134.14c-1.4,3.64-2.89,10.71-2.06,14.37"/><path class="cls-4" d="m185.07,139.12c-1.26,3.06-2.1,9.92-1.95,14.46"/><path class="cls-4" d="m205.6,141.2c-.78,1.88-1.06,11.25-1.06,13.74"/><path class="cls-4" d="m227.6,140.35c-.15,1.96,0,7.54.5,9.75"/><path class="cls-4" d="m251.07,135.23c1.09,1.72,2.33,6.67,2.76,9.12"/><path class="cls-6" d="m383.79,59.33c.88,6.77-.44,10.23-2.28,13.39,1.27,2.94,4.04,5.38,5.12,6.65"/></g><path class="cls-6" d="m146.74,176.76c0-7.25-.15-15.1-1.51-17.36"/><path class="cls-5" d="m192.34,185.08c.12-4.52-.57-9.1-.91-10.05"/><path class="cls-5" d="m185.25,181.35c-.13-3.48-.62-6.51-.89-7.26"/><path class="cls-5" d="m160.02,173.13c.26-2.93.24-5.44.02-6.04"/><path class="cls-5" d="m224.92,185.57c-.43-4.5-1.38-8.65-1.84-9.55"/><path class="cls-5" d="m233.86,191.55c-.43-4.5-1.77-12.8-2.23-13.7"/><path class="cls-5" d="m261.12,167.86c1.66,3.17,2.57,6.49,3.47,10.57"/><path class="cls-5" d="m269.76,168.73c1.43,3.28,2.16,6.54,3.28,10.56"/><path class="cls-5" d="m295.29,156.85c2.15,3.93,3.01,6.87,3.51,8.41"/><path class="cls-5" d="m302.4,153.96c1.51,2.42,3.77,8.61,4.53,10.72"/><path class="cls-5" d="m327.19,140.04c1.5,3.39,2.05,4.47,2.86,6.02"/><path class="cls-5" d="m353.56,119.44c2.36,2.87,3.17,3.76,4.37,5.04"/><path class="cls-5" d="m333.38,134.41c1.51,2.76,3.57,6.91,5.15,9.78"/></g><g><path class="cls-9" d="m174.97,60.5c19.48-19.93,86.4-47.31,132.26-43.48,32.61,2.72,38.5,24.46,35.78,30.8-9.49-4.83-27.79-8.63-49.71-9-12.17-.2-12.83-9.39-22.01-8.95-4.73.22-14.05,9.64-18.86,10.08-27.67,2.58-56.05,8.99-77.46,20.54Z"/><path class="cls-9" d="m211.55,192.87c3.06-.91,6-1.93,6.57-1.93-2.6-4.64-4.64-16.53-4.19-19.02.45-2.49,1.02-4.53,2.72-4.87-4.87-1.36-6.57,1.02-6.91,4.87s1.7,17.21,1.81,20.95Z"/><path class="cls-9" d="m251.42,189c2.99-1.37,6.47-2.99,7.72-3.36-4.61-6.47-7.97-18.42-6.6-20.91s3.73-3.36,4.48-3.61c-9.96-.37-10.33,5.35-9.96,6.97.37,1.62,3.11,14.56,4.36,20.91Z"/><path class="cls-9" d="m291.98,177.66c1.51-1.36,4.23-3.32,4.83-3.62-4.38-6.04-7.4-17.06-6.95-19.48s1.51-2.57,2.57-3.02c-5.89-.6-8.91,3.32-7.55,7.1,1.36,3.77,5.28,14.8,7.1,19.02Z"/><path class="cls-9" d="m292.44,128.74c26.57-10.57,59.01-35.14,75.32-76.81,2.6,5.19,4.25,7.32,6.61,10.15-16.53,37.54-51.9,63.96-72.47,68.38-11.75,2.53-16.7,2.81-9.46-1.72Z"/><path class="cls-9" d="m327.28,159.13c1.02-2.38,2.04-3.51,2.49-3.85-3.74-4.19-10.53-15.51-8.15-20.16-3.28,1.25-3.28,5.21-2.6,7.7.68,2.49,5.66,12.8,8.27,16.31Z"/></g></g><polygon class="cls-1" points="184.8 76.48 273.26 28.14 279.3 33.93 184.8 76.48"/><polygon class="cls-1" points="243.94 60.02 293.32 47.16 300.95 54.88 243.94 60.02"/><g><polyline class="cls-7" points="279.3 33.93 273.26 28.14 184.8 76.48"/><line class="cls-7" x1="221.62" y1="113.58" x2="235.56" y2="72.42"/><polyline class="cls-7" points="243.94 60.02 293.32 47.16 300.95 54.88"/><polyline class="cls-3" points="190.23 82.9 193.67 86.68 225.19 67.45"/><polyline class="cls-3" points="215.57 108.87 211.71 103.67 219.02 89.15"/><line class="cls-3" x1="244.28" y1="70.67" x2="294.06" y2="58.31"/><line class="cls-3" x1="256.98" y1="48.69" x2="274.49" y2="39.43"/></g></g></svg>