<?xml version="1.0" encoding="UTF-8"?><svg id="Capa_1" xmlns="http://www.w3.org/2000/svg" viewBox="0 0 466.4 392.84"><defs><style>.cls-1{fill:#538c3b;}.cls-2{fill:#ff5900;}</style></defs><g><path class="cls-1" d="m198.84,345.37c-.73-20.05-.35-49.88-.2-52.06-3.9-2.94-11.04-11.23-16.47-17.34-4.98,8.38-25.71,27.85-31.76,29.95,1.2.29,17.04,14.97,19.37,17.55.83,4.85,1.16,11.3,1.22,18-4.02,3.44-8.55,7.77-13.15,12.42-3.77-3.67-7.69-7.15-9.87-8.53-.73-20.05-.35-49.88-.2-52.06-3.9-2.94-11.04-11.23-16.47-17.34-4.98,8.38-25.71,27.85-31.76,29.95,1.2.29,17.04,14.97,19.37,17.55,2.61,15.25.29,46.46,0,50.97,5.52,3.93,13.66,11.36,17.32,16.69,8.71-11.2,23.16-26.85,34.63-37.62-.3,10.05-.93,18.72-1.07,20.93,5.52,3.93,13.66,11.36,17.32,16.69,7.06-9.37,23.33-24.01,29.44-28.99-4.19-4.99-13.76-14.27-17.69-16.77Z"/><path class="cls-1" d="m448.72,345.37c-.54-14.95-.47-42.43-.34-56.34,4.41-3.67,8.06-8.01,9.95-13.05-13.84,7.6-44.37,4.74-53.48.02,0-.1-.02-.11-.04-.02-9.32,12.79-16.52,20.47-28.86,30.16,2.61,15.25.29,63.8,0,68.3,5.52,3.93,13.66,11.36,17.32,16.69,6.23-8.27,19.64-20.64,26.9-26.86-.23,5.23-.44,9.01-.51,10.17,5.52,3.93,13.66,11.36,17.32,16.69,7.06-9.37,23.33-24.01,29.44-28.99-4.19-4.99-13.76-14.27-17.69-16.77Zm-29.07-34.64c1.75,10.21,1.29,33.27.7,48.76-4.73-5.11-12.03-12.02-15.34-14.12-.33-9.09-.33-24.63-.27-38.72,5.49-.58,10.28-1.58,14.52-2.89,4.52-1.4,11.43-3.89,18.26-7.55-5.56,6.14-12.29,12.19-17.87,14.52Z"/><path class="cls-1" d="m352.25,345.37c-.73-20.05-.35-49.88-.21-52.06-3.9-2.94-11.04-11.23-16.47-17.34-8.63,10.18-22.28,25.51-33.25,36.86.02-10.33.15-18.43.22-19.53-3.9-2.94-11.04-11.23-16.47-17.34-8.46,9.98-21.73,24.89-32.58,36.16,0-11.35.15-20.53.23-21.7-3.9-2.94-11.04-11.23-16.47-17.34-4.98,8.38-25.71,27.85-31.76,29.95,1.2.29,17.04,14.97,19.37,17.55,2.61,15.25.29,46.46,0,50.97,5.52,3.93,13.66,11.36,17.32,16.69,7.06-9.37,23.33-24.01,29.44-28.99-4.19-4.99-13.76-14.27-17.69-16.77-.2-5.44-.31-11.59-.37-17.72,3-2.91,6.26-6.31,9.61-9.92,4.27,3.21,9.21,7.16,10.52,8.62,2.61,15.25.29,46.46,0,50.97,5.52,3.93,13.66,11.36,17.32,16.69,7.06-9.37,23.33-24.01,29.44-28.99-4.19-4.99-13.76-14.27-17.69-16.77-.22-6.09-.34-13.08-.39-19.92,3.18-3.06,6.69-6.7,10.3-10.6,4.27,3.21,9.21,7.16,10.52,8.62,2.61,15.25.29,46.46,0,50.97,5.52,3.93,13.66,11.36,17.32,16.69,7.06-9.37,23.33-24.01,29.44-28.99-4.19-4.99-13.76-14.27-17.69-16.77Z"/><path class="cls-1" d="m111.85,361.04c-5.52-3.93-13.66-13.45-17.32-18.78-2.99,3.97-7.64,8.89-12.47,13.62-4.54-.77-9-1.2-13.37-1.27.02-20.75-.11-69.04-.16-88.27,16.21-12.05,24.37-27.83,24.37-37.28-10.17,15.25-27.29,23.71-48.43,23.71-3.88,2.37-18.41,25.22-28.87,30.16,8.09,0,15.55-.92,22.38-2.54l-10.19,9.96c.69,4.03,1.04,11.62,1.17,20.68-4.29,4.66-10.33,10.04-12.93,12.17,5.48,4.39,9.72,8.7,12.88,12.32-.16,11.38-.46,22.43-.71,30.16-10.24,6.32-19.69,15.34-28.2,27.14,32.52-16.46,66.8-14.09,78.8,0,7.06-9.37,23.33-24.01,29.44-28.99h0c1.65-1.34,2.91-2.32,3.61-2.81Zm-69.15-2.28c5.23-5.31,10.2-9.47,14.17-11.67-.54-14.99-.47-53.81-.34-73.37,2.48-1.24,4.83-2.58,7.06-3.99.91,18.96.38,65.82.03,84.97-7.23.35-14.21,1.7-20.92,4.06Z"/></g><g><path class="cls-2" d="m339.33,98.65c-13.21-22.06-37.42-35.78-66.3-20.6-5.07,9.47-17.96,20.16-25.12,24.22,17.59,28.14,45.32,31.12,68.16,19.01,7.27-9.95,11.97-15.47,23.26-22.63Z"/><path class="cls-2" d="m241.43,199.95c22.06-13.21,35.78-37.42,20.6-66.3-9.47-5.07-20.16-17.96-24.22-25.12-28.14,17.59-31.12,45.32-19.01,68.16,9.95,7.27,15.47,11.97,22.63,23.26Z"/><path class="cls-2" d="m140.28,100.71c13.21,22.06,37.42,35.78,66.3,20.6,5.07-9.47,17.96-20.16,25.12-24.22-17.59-28.14-45.32-31.12-68.16-19.01-7.27,9.95-11.97,15.47-23.26,22.63Z"/><path class="cls-2" d="m238.71,0c-22.06,13.21-35.78,37.42-20.6,66.3,9.47,5.07,20.16,17.96,24.22,25.12,28.14-17.59,31.12-45.32,19.01-68.16-9.95-7.27-15.47-11.97-22.63-23.26Z"/></g></svg>