<?xml version="1.0" encoding="UTF-8"?><svg id="Capa_1" xmlns="http://www.w3.org/2000/svg" viewBox="0 0 378.63 296.15"><defs><style>.cls-1{fill:#1d1d1b;}</style></defs><g><path d="m168.83,61.48c-1.36,0-2.68.21-3.92.59,2.94.71,5.12,3.35,5.12,6.5,0,3.69-3,6.69-6.69,6.69-3.41,0-6.22-2.55-6.63-5.84-.71,1.62-1.1,3.4-1.1,5.28,0,2.72.82,5.25,2.23,7.35,3.87-.51,11.85.7,16.19,3.57l-2.46-8.91,9.49,3.04c.64-1.55,1-3.26,1-5.04,0-7.3-5.92-13.22-13.22-13.22Z"/><path d="m157.84,91c-6.78-.44-12.44,1.72-12.65,4.82-.2,3.1,5.13,5.97,11.92,6.41,6.78.44,12.44-1.72,12.65-4.82.2-3.1-5.13-5.97-11.92-6.41Z"/><path d="m225.07,57.8c2.18.76,3.74,2.83,3.74,5.26,0,3.08-2.5,5.57-5.57,5.57-2.46,0-4.55-1.6-5.29-3.81-.36,1.09-.57,2.26-.57,3.48,0,4.89,3.19,9.03,7.6,10.47,1.86-1.2,4.37-2.28,7-3.02l-1.42-4.43,7.59,2.12c.81-1.53,1.27-3.28,1.27-5.14,0-6.09-4.93-11.02-11.02-11.02-1.16,0-2.28.18-3.33.51Z"/><path d="m308.48,45.25h-5.89c.03-3.48.15-7.56.24-8.14.14-.88-4.96-3.19-13.85-3.19-.67,0-1.32,0-1.96.02.05-1.8.11-3.23.16-3.56.13-.87-4.87-3.14-13.62-3.14s-14.62,1-14.62,2.94c0,1.11.08,2.51.13,3.76-.51-.02-1.04-.03-1.58-.03-8.9,0-14.87,1.02-14.87,2.99s.23,4.82.19,6.28c-.02.7-.06,1.39-.1,2.07h-2.98c-1.08-1.56-2.23-3.07-3.46-4.53,1.71.17,3.4-.38,3.2-2.96-1.49-18.83-5.55-23.89-5.91-35.51-.07-2.13.41-2.42-2.52-2.17-49.3,4.28-86.61,12.97-109.26,45.49-.4.04-5.11.57-6.68.82-1.57.25-1.8,1.07-1.99,1.48-.19.41-.59.96-1.3,2.05-13.64-.33-28.14,5.05-31.58,6.85-.66.35-.59.72-.14,1.21,1.03,1.12,4.42,4.55,5.95,8.6-2.95,1.77-8.3,5.23-14.66,4.69,1.7,10.31,6.84,5.79,11.31,22.61.63,2.38,1.87,1.66,2.15,1.25,7.22-10.31,20.25-26.43,29.12-34.57,1.88.84,3.68,1.6,4.47,1.93,1.01.42,2.17.41,2.95.25-1.47,5.12-2.26,10.5-2.26,16.06,0,12.5,3.97,24.13,10.79,33.84-5.32,4.63-8.4,10.65-8.4,16.15,0,10.48,5.81,17.51,13.09,21.53-.23,1.94-.26,3.82-.04,5.59.26,2.13,2.62,2.63,2.93.8.25-1.44.64-2.96,1.16-4.51,1.77.68,3.57,1.2,5.36,1.57-.74,4.54-.83,9.01,0,12.93.57,2.67,3.61,3.04,3.8.68.33-4.01,1.49-8.55,3.28-12.94,2.45-.05,5.01-.39,7.58-.98-2.47,9.46-3.3,19.37-1.25,27.45.9,3.57,5.03,3.92,5.17.72.6-14.17,8.67-33.64,20.1-41.29.67.02,1.35.03,2.03.03,7.18,0,14.08-1.09,20.55-3.09,5.41,4.88,9.58,13.44,10.56,20.2.27,1.84,2.64,1.39,2.95-.73,1.02-6.91-1.65-15.67-5.44-22.54.17-.08.33-.15.49-.23,7.13,6.14,12.63,17.4,13.88,26.23.33,2.35,3.35,1.79,3.76-.91,1.44-9.51-2.6-21.79-8.02-30.81.15-.1.3-.21.46-.31,10.74,7.7,19.25,24.39,21.07,37.27.45,3.17,4.52,2.41,5.07-1.23,2.23-14.79-5.32-34.52-14.24-46.81,5.79-6.75,10.1-14.67,12.46-23.32,0,.03-.02.07-.03.1,1.58,2.19,3.51,3.89,5.64,4.89,12.91,6.1,24.35-3.37,28.53-12.22,3.26-6.9,3.91-16.64,1.09-23.92h20.06c.43,0,.83-.23,1.03-.61l4.93-6.62c.09-.17.14-.37.14-.56v-8.74c0-.65-.53-1.17-1.17-1.17Zm-43.64-15.02c2.39-.68,5.87-.88,9.01-.63,3.13.25,6.61.3,8.58,1.19,1.4.63,1.71,1.37-1.01,1.12-2.72-.25-10.16.28-14-.07-1.82-.17-6.05-.62-2.58-1.61Zm8.88,32.73l-8.25,6.93.12-6.93h8.13Zm-136.98-23.77c10.33-14.03,47.12-31.98,85.69-31.42,4.56.07,4.42,1.89,4.9,4.24.39,1.87.89,3.69,1.42,5.47-1.39.18-3.17.59-6.08,1.43,2.17.41,5.14,1.79,7.49,3.2.73,2.45,1.34,4.77,1.53,6.92.23,2.6-.47,4.17-3.94,3.89-27.17-2.18-63.82,3.54-92.96,14.88,8.01-5.88,19.39-11.75,25.43-14.39-9.02,1.01-14.39,2.68-23.48,5.79Zm15.23,107.36c-10.36,0-22.13-6.41-22.13-18.97,0-7.69,8.94-18.32,21.63-18.32,11.04,0,17.11,4.15,19.5,7.74,0,0-10.16,5.12-12.73,6.34-2.57,1.21-2.57,3.93-.3,5.22,2.27,1.29,18.61,9,18.61,9-6.25,6.28-14.21,9-24.57,9Zm92.32-64.09c-1.54-.08-3.3.07-5.13.48-5.24,1.19-9.05,4.09-8.5,6.49.54,2.4,5.23,3.37,10.47,2.18.53-.12,1.04-.26,1.53-.41-6.49,23.32-29.08,40.52-55.96,40.52-9.21,0-17.92-2.03-25.65-5.62l14.66-6.63c-2.1-7.37-11.64-15.8-27.13-14.54-3.67.3-7.07,1.16-10.14,2.43-6.05-8.58-9.58-18.87-9.58-29.93,0-8.14,1.91-15.86,5.33-22.78,21.76-9.35,62.02-19.34,93.69-15.33,10.3,9.8,16.66,23.26,16.66,38.12,0,1.69-.09,3.36-.25,5.02Zm1.43-31.48c-.78-.63-.28-4.07-.16-7.52.04-1.18-.15-3.47-.15-5.05s4.81-2.4,11.97-2.4,11.26,1.86,11.15,2.57-.27,7.82-.16,10c.11,2.19.27,2.51-.6,2.95s-7,1.62-10.2,1.62-10.56-1.12-11.84-2.16Zm33.54,33.7c-3.55,7.52-12.82,12.37-18.59,10.05-7.15-2.87-10.3-8.59-8.92-19.06.53-4.02,1.94-7.58,3.69-10.32,2.36-.32,5.16-.41,6.94-.36.06,2.23.12,4.56.11,5.6,0,4.7,1.08,6.68,3.6,6.39,4.77-.54,10.52-5.59,12.42-11.95.55-.03,1.16-.03,1.73-.02,2.03,5.95,2.07,13.22-.98,19.67Zm20.6-36.11c.11,2.19.27,2.51-.6,2.95-.87.44-7,1.62-10.2,1.62s-10.56-1.12-11.84-2.16c-.78-.63-.28-4.07-.16-7.52.04-1.18-.15-3.47-.15-5.05s4.81-2.4,11.97-2.4,11.26,1.86,11.15,2.57c-.11.71-.27,7.82-.16,10Z"/><path d="m262.47,39.26c1.89.17,1.68-.34.7-.78-1.37-.62-3.79-.65-5.96-.82-2.18-.17-4.6-.04-6.26.44-2.41.69.53,1,1.8,1.12,2.67.24,7.83-.12,9.73.05Z"/><path d="m294.66,38.48c-1.37-.62-3.79-.65-5.96-.82-2.18-.17-4.6-.04-6.26.44-2.41.69.53,1,1.8,1.12,2.67.24,7.83-.12,9.73.05,1.89.17,1.68-.34.7-.78Z"/><path d="m190.01,23.77c.84,5.08,5.11,7.68,9.6,6.94,4.49-.74,7.51-4.54,6.67-9.62-.27-1.74-1.78-.89-1.95-2-.97-5.06-5.32-7.55-9.8-6.69-4.47.85-7.37,4.72-6.4,9.79.23,1.27,1.58.41,1.87,1.59Z"/><path d="m212.7,97.46c-1.14-.38-2.37.23-2.75,1.37-.69,2.07-2.86,4.63-6.69,5.06-4.27.48-7.07-.82-9.06-4.2-.61-1.03-1.94-1.38-2.97-.77-1.03.61-1.38,1.94-.77,2.97,2.52,4.28,6.36,6.95,13.28,6.32,4.84-.44,8.88-3.67,10.33-7.99.38-1.14-.23-2.37-1.37-2.75Z"/></g><g><g><path class="cls-1" d="m254.78,246.12c0,5.97,8.35,1.29,14.92,3.28-1.26-5.69,2.13-9.16-3.96-12.8-3-1.8-12.2-1.87-16.4-1.87-7.21,0-17.27,1.55-17.27,11.02,0,13.36,16.4,16.48,32.68,18.13-13.17-3.49-22.54-11.18-22.54-18.13,0-3.82,3.04-5.1,7.13-5.1,3.11,0,5.45.79,5.45,5.48Z"/><path class="cls-1" d="m236.65,264.37c-5.5,11.4,5.93,13.99,13.89,13.4,6.62-.49,13.69-4.66,17.92-9.04-1.38,7.27,4.6,11.58-3.16,15.98-2.97,1.69-7.91,2-16.86,2-18.78,0-19.58-14.56-11.79-22.34Z"/></g><g><path class="cls-1" d="m34.02,286.22c-4.83.13-17.52.17-20.45-.17-2.94-.34-10.01-1.76-12.77-15.05-1.39-6.7-1.21-9.92,2.5-10.01,3.71-.08,7.25.99,11.21-.22-1.74,6.48-.02,19.55,10.96,19.55,6.47,0,10.76-9.05,9.66-18.47-1.12-9.71-12.39-22.28-25.34-22.83,22.66-7.17,40.84,9.78,40.86,27.77,0,18.1-14.42,19.38-16.63,19.44Z"/><path class="cls-1" d="m4.81,234.28c2.59-7.45,11.12-12.18,20.3-13,11.96-1.07,17.81,2.73,21.84,5.64-3.19-10.74,7.13-15.15-6.89-18.14-4.91-1.05-14.06-2.14-22.65,3.36-9.18,5.88-12.17,12.92-12.6,22.14Z"/></g><g><path class="cls-1" d="m278.84,261.33c.9-14.11-.09-24.21-.25-26.21,6.66,2.01,15.1-3.98,15.1,6.54,0,11.27-3.38,21-3.38,28.09,0,6.32-.09,10.55,5.46,12.57,2.23.81,5.56,1.4,8.53-1.98-2.12,4.33-5.3,5.98-9.35,5.9-12.67-.26-17.06-9.67-16.1-24.9Z"/><path class="cls-1" d="m310.19,263c.08-12.43-.28-23.46-.54-27.94,5.53,2.17,16.33-4.06,14.97,6.94-1.44,11.64.92,20.56-2.69,25.36-2.84,3.81-8.23,10.3-8.23,18.94-4.95,0-3.56-13.87-3.51-23.3Z"/></g><g><path class="cls-1" d="m123.92,275.33c0-5.97-8.34-1.3-14.91-3.29,1.26,5.69-2.13,9.16,3.96,12.79,3,1.79,12.2,1.88,16.4,1.88,7.2,0,17.26-.95,17.26-15.35,0-13.35-13.63-13.15-30.96-16.78,14.67,6.58,20.85,9.84,20.83,16.78-.02,5.15-3.04,9.44-7.13,9.44-3.11,0-5.45-.8-5.45-5.47Z"/><path class="cls-1" d="m110.86,249.06c-2.99-11.38,4.49-14.33,15.4-14.33,4.2,0,13.4.08,16.4,1.88,6.09,3.63,2.7,7.1,3.96,12.79-6.57-1.99-13.34,2.8-14.91-3.28-.87-3.34-3.87-4.63-6.94-5.13-6.79-1.09-13.9-1.28-13.9,8.07Z"/></g><g><path class="cls-1" d="m192.91,259.87c-3-.68-17.18-.75-21.54-1.27.79-10.95-2.89-23.65-15.66-23.82,1.26,6.05,2.5,11.66,2.5,22.56,0,10.08-1.44,15.8-1.69,20.98-.31,6.4,2.57,8.34,4.42,8.01.17-7.84,5.21-8.89,8.69-18.85.19-.55.37-1.14.54-1.74,4.07-1.15,18.24-5.36,22.74-5.87Z"/><path class="cls-1" d="m187.22,259.99c-.14-12.21-1.53-19.17-2.21-24.88,9.89,2.36,14.8-6.32,14.8,17.63,0,18.55-10.49,33.82-14.72,33.57,1.47-13.18,2.19-21.22,2.13-26.32Z"/></g><g><path class="cls-1" d="m209.11,263c.08-12.43-.29-23.46-.55-27.94,5.53,2.17,16.77-3.99,14.98,6.94-2.17,13.15-.07,20.02-2.69,25.83-1.95,4.33-8.22,13.78-8.22,18.48-4.95,0-3.57-13.87-3.51-23.3Z"/><path class="cls-1" d="m208.77,229.23c-.25-2.46.52-3.33-.21-5.94,4.31,1.26,8.6-.8,11.91-.63,3.54.19,3.26,2.03,3.26,4.77,0,3.51-9.76,2.9-14.96,1.8Z"/></g><g><path class="cls-1" d="m336.11,259.99c-.14-12.21-1.52-19.17-2.21-24.88,9.89,2.36,14.8-6.32,14.8,17.63,0,18.55-10.49,33.82-14.72,33.57,1.47-13.18,2.19-21.22,2.13-26.32Z"/><path class="cls-1" d="m376.43,296.15c-2.98-15.39-3.19-20.73-6.75-29.36-2.66-6.43-5.34-10.08-9.44-5.82-4.27,4.43-7.71,6.31-8.16,7.24,7.59,6.55,17.09,18.16,24.35,27.94Z"/><path class="cls-1" d="m361.77,234.94c7.82-3.63,13.27-1.79,15.69,3.35,5.81,12.3-11.98,16.51-12.89,16.84-.9.34,7.21-13.6-11.53-15.35,2.76-1.64,7.68-4.36,8.72-4.84Z"/></g><g><path class="cls-1" d="m90.14,259.95c-.14-12.46-1.55-19.55-2.26-25.38,10.09,2.41,15.1-6.45,15.1,17.98,0,18.92-10.69,34.5-15,34.24,1.49-13.44,2.23-21.65,2.16-26.85Z"/><path class="cls-1" d="m83.49,272.46c-2.92,5.08-11.72,6.28-17.73,5.03-3.09-.64-3.36-3.75-2.75-7.2,1.36-5.19,4.24-8.66,6.11-11.74,3.5-5.76,5.62-9.95,6.19-15.85,1.09-11.25-9.63-4.86-15.27-7.08.26,4.58.63,3.32.56,16-.06,9.62-3.47,18.13,1.12,24.93,4.59,6.81,8.38,10.39,12.45,10.39,5.22,0,7.91-7.29,9.31-14.49Z"/></g></g></svg>