<?xml version="1.0" encoding="UTF-8"?><svg id="Capa_1" xmlns="http://www.w3.org/2000/svg" viewBox="0 0 450.29 325.06"><defs><style>.cls-1{fill:#e73439;}.cls-2{fill:#263030;}</style></defs><path class="cls-1" d="m54.34,242.76c0,4.17,0,7.1-1.85,9.57-1.85,2.47-5.09,3.71-10.34,3.71s-8.49-1.23-10.34-3.71c-1.85-2.47-1.85-5.4-1.85-9.57v-65.45H13.12c-4.17,0-6.95,0-9.42-1.7-2.32-1.7-3.7-4.48-3.7-9.11s1.39-7.56,3.7-9.26c2.47-1.7,5.25-1.7,9.42-1.7h58.04c4.17,0,6.95,0,9.41,1.7,2.32,1.7,3.71,4.48,3.71,9.26s-1.39,7.41-3.71,9.11c-2.47,1.7-5.25,1.7-9.41,1.7h-16.83v65.45Z"/><path class="cls-1" d="m407.68,221.61c-2.93,0-5.4-.15-5.4-.15v21.3c0,4.17,0,7.1-1.85,9.57-1.85,2.47-4.94,3.71-10.03,3.71s-8.34-1.23-10.19-3.71c-1.85-2.47-1.85-5.4-1.85-9.57v-72.86c0-5.25,0-10.34,7.87-13.28,4.17-1.54,11.11-2.47,19.45-2.47,10.34,0,21.61,1.39,30.72,7.1,8.64,5.4,13.89,13.89,13.89,26.09,0,23.31-18.99,34.27-42.61,34.27Zm-5.4-19.14s1.85.31,4.63.31c9.73,0,18.83-3.55,18.83-14.2,0-9.72-7.41-14.05-17.91-14.05-2.78,0-5.56.31-5.56.31v27.63Z"/><path class="cls-1" d="m229.88,89.93c-64.93,0-117.57,52.64-117.57,117.57s52.64,117.57,117.57,117.57,117.57-52.64,117.57-117.57-52.64-117.57-117.57-117.57Zm0,210.12c-51.11,0-92.55-41.44-92.55-92.55s41.44-92.55,92.55-92.55,92.55,41.44,92.55,92.55-41.44,92.55-92.55,92.55Z"/><g><path class="cls-2" d="m112.52,62.11c4.02-.57,8.3-.07,11.85,3.88,5.54,6.16,3.5,14.44-2.9,20.19-2.21,1.99-4.82,3.55-7.8,4.49-2.33.7-4.63.95-6.37-.98-1.64-1.83-2.56-5.36-.35-7.35,2.02-1.82,5.38-1.18,7.98-3.52,1.73-1.56,2.06-3.42.98-4.62-1.34-1.49-3.85-.89-6.91-.14-5.25,1.33-12.14,3.44-17.21-2.19-5.24-5.82-3.52-14.07,2.69-19.66,4.33-3.9,10.79-6.4,13.64-3.22,1.64,1.83,2.05,5.47-.02,7.33-1.78,1.6-5.03,1.48-7.19,3.42-1.44,1.3-1.62,2.85-.79,3.76,1.78,1.97,6.82-.65,12.4-1.41Z"/><path class="cls-2" d="m176.47,39.88c.84-2.38-.06-4.81-.8-6.81l-6.11-16.5c-.72-1.94-1.21-3.28-.77-4.68.44-1.41,1.64-2.47,4-3.34,2.37-.88,3.96-.85,5.22-.07,1.25.78,1.75,2.11,2.47,4.05l5.9,15.96c1.57,4.25,3.28,8.86,1.35,14.26-1.43,3.98-4.74,7.89-12.44,10.74-7.7,2.85-12.77,2.03-16.44-.06-4.99-2.85-6.69-7.46-8.26-11.7l-5.9-15.96c-.72-1.94-1.21-3.28-.77-4.68.44-1.41,1.64-2.47,4.06-3.37,2.43-.9,4.02-.87,5.28-.09,1.25.78,1.75,2.11,2.46,4.05l6.11,16.5c.74,2,1.64,4.43,3.83,5.69,1.5.89,3.49,1.05,6.16.07,2.67-.99,4.08-2.41,4.64-4.06Z"/><path class="cls-2" d="m244.85,19.57c3.31,2.34,6.08,5.64,5.96,10.94-.19,8.28-7.35,12.9-15.96,12.7-2.97-.07-5.94-.72-8.75-2.08-2.17-1.09-4.02-2.49-3.96-5.08.06-2.46,1.82-5.65,4.79-5.58,2.72.06,4.72,2.83,8.22,2.91,2.33.05,3.84-1.08,3.88-2.69.05-2.01-2.19-3.29-4.94-4.84-4.73-2.63-11.19-5.82-11.01-13.39.18-7.83,7.09-12.65,15.43-12.46,5.82.14,12.23,2.74,12.13,7.01-.06,2.46-2.26,5.38-5.04,5.32-2.39-.05-4.67-2.37-7.58-2.44-1.94-.05-3.13.96-3.16,2.19-.06,2.65,5.4,4.2,9.99,7.48Z"/><path class="cls-2" d="m317.05,57.7c-.81,1.9-1.37,3.21-2.66,3.93-1.29.71-2.89.67-5.27-.35-2.38-1.02-3.52-2.14-3.89-3.56-.38-1.43.18-2.74,1-4.64l4.17-9.76-13.8-5.89-4.17,9.76c-.81,1.9-1.37,3.21-2.66,3.93-1.29.72-2.89.67-5.27-.35-2.38-1.02-3.52-2.14-3.9-3.56-.37-1.43.18-2.74,1-4.64l11.69-27.37c.81-1.9,1.37-3.21,2.66-3.93,1.29-.72,2.89-.67,5.27.35,2.38,1.02,3.52,2.14,3.89,3.56.38,1.43-.18,2.74-1,4.64l-3.43,8.03,13.8,5.89,3.43-8.03c.81-1.9,1.37-3.21,2.66-3.93,1.29-.71,2.89-.67,5.27.35,2.38,1.02,3.52,2.14,3.89,3.56.38,1.43-.18,2.74-1,4.64l-11.69,27.37Z"/><path class="cls-2" d="m353.13,86.34c-1.41,1.51-2.38,2.56-3.84,2.79-1.46.23-2.94-.35-4.84-2.12-1.89-1.76-2.59-3.2-2.46-4.67.13-1.47,1.1-2.51,2.51-4.03l20.28-21.78c1.41-1.51,2.38-2.56,3.84-2.79,1.46-.23,2.94.35,4.84,2.12,1.89,1.76,2.59,3.2,2.46,4.67-.13,1.47-1.1,2.51-2.51,4.03l-20.28,21.78Z"/></g></svg>