<?xml version="1.0" encoding="UTF-8"?><svg id="Capa_1" xmlns="http://www.w3.org/2000/svg" viewBox="0 0 666.09 271.5"><defs><style>.cls-1{fill:#fff;}</style></defs><path d="m150.34,174.99l204.17-.28,204.17.28v.56l-12.76.72-12.76.54-25.52,1.07-25.52.79c-8.51.27-17.01.39-25.52.6l-12.76.28-12.76.18-25.52.34c-17.01.16-34.03.17-51.04.26l-51.04-.25-25.52-.34-12.76-.18-12.76-.28c-8.51-.2-17.01-.33-25.52-.6l-25.52-.79-25.52-1.07-12.76-.54-12.76-.72v-.56Z"/><g><path d="m406.46,118.44c4.67,2.09,6.69,2.16,9.71,2.09-5.28-7.18-10.25-16.66-15.03-26.41,1.65,1.8,3.34,3.21,5,3.89-6.36-8.18-16.54-31.28-25.67-43.35-10.55-15.55-18.64-20.47-28.12-23.66.5-2.23,1.15-4.07,2.5-5.65,4.51-1.08,11.38-3.13,14.91-4.97.76.09,2.14.02,5.47,2.24-.53-3.46-2.18-8.7-7.04-12.54-4.6-3.63-13.48-4.35-19.7-4.72-3.39-2.14-7.68-3.81-11.33-4.89-2.13-.63-4.97-.72-7.16.25-8.2,3.64-15.41,10.31-19.57,16.53-5.42,8.11-7.81,18.38-9.87,34.7-2.18,17.29,2.01,33.43,4.15,41.29.5-3.06,1.69-5.33,2.48-6.67.77,9.07,6.24,20.32,8.89,24.78-.34-3.88-.02-6.61.32-8.34,5.02,6.1,11.83,11.72,19.43,16.89,5.08,14.89,5.1,25.56,4.1,29.27,1.3-1.57,1.95-2.39,2.44-3.06-.36,1.61-.55,2.45-1.11,3.14-5.32,6.63-10.05,12.88-15.82,22.02-.65.01-1.24.26-1.83.58-2.43-.56-4.99.7-6.54,2.87-1.16,1.63-2.09,2.79-2.27,4.01-.14.99,1.37,1.62,2.53,1.1-.06.26-.14.51-.2.79-.19.89-.24,1.74.32,2.18.6,1.69,1.8,3.98,5.05,3.39-2.07-1.09-2.67-2.39-2.41-3.49.67-.09.67-1.16,1.41-3.08,1.23-3.2,3.26-4.08,5.25-4.04,1.27.59,2.36,1.33,3.67,1s2.88-2.13,2.78-3.33c-.04-.54-.52-1.07-1.13-1.43,3.09-5.91,13.18-19.21,14.83-21.04,1.15-.54,2.16-1.53,2.74-2.53.54,1.39,1.17,2.95,1.09,3.89,1.4-4.89,2.11-11.16,2.39-13.91.19-1.84.03-5.09.45-7.65.86.48,1.8,1.13,2.67,1.6,2.28,9.31,2.72,18.14,1.92,20.28.52-.5,1.1-.99,1.68-1.43.01.43.03.88.03,1.39,0,2.99-1.13,13.44-2.13,18.58-.39.26-.74.59-1,1.03-1.62-1.9-4.21-2.21-5.28-.52-3.65,5.83-.48,11.19,2.92,15.4-1.08-4.15-2.18-7.92-.92-9.98.71.95,2.14.26,2.53-.42,1.21,1.35,1.99,1.83,2.92,1.5.32,1.54,1.05,6.23,1.01,8.13.79-1.94,2.61-6.81,2.92-8.91,1.08,1.5,2.64,1.65,4.08.3.52,2.62.29,6.18-.22,8.9,2.74-3.6,5.1-10.78,2.56-14.56-1.13-1.69-3.35-1.66-4.55-.18-.33-.46-.74-.78-1.19-1.03.31-5.76,1.38-16.28,2.03-17.75.27-.61.59-1.28.89-1.98.14-.09.28-.17.42-.22.61.39,1.66,2.5,1.84,3.41.49-3.71,1.44-7.62,3.06-11.33,4.99,4.29,9,8.73,12.15,12.78,6.6,9.74,12.69,25.91,20.21,33.52,1.48,1.49,1.32-.16.85-1.58-.38-1.13-2.14-5.22-2.73-9.22.8,1.1,1.58,2.34,2.33,3.82,2.76,5.45,3.53,9.32,6.06.72.11-.38.39-3.49-.24-7.92.14.41,1.03,7.5,1.15,7.93.58,2.03.87,4.16.91,6.02.03,1.9.63,2.01,1.34.24,8.36-20.77-1.93-54.35-7.31-70.67Zm-98.58-33.07s.01-.03.01-.03c0,0,0,.01,0,.03h-.02Z"/><g><path class="cls-1" d="m413.28,172.57c-2.16-15.52-6.16-33.3-14.7-49.13,3.02,2.47,5.06,4.49,5.25,4.92.12-1.7.84-5.63.59-6.66,4.29,14.22,9.45,33.84,8.86,50.87Z"/><g><path class="cls-1" d="m373.11,19.09c-4.09-11.26-14.99-11.05-20.42-11.05-1,0-1.97.03-2.89.1-2.87.71-4.02,1.48-5.31,2.1,2.17-.28,3.44.03,5.01.57-2,.31-3.69.97-5.03,1.93.94.02,2.45.18,3.41.68-1.68.39-3.49,2-4.11,2.92.87-.11,1.7-.16,2.49-.17,8.49-2,22.48-.15,26.86,2.91Z"/><path class="cls-1" d="m345.92,19.63c.09,2.1,2.27,4.99,4.98,4.4,5.19-1.13,12.85-2.67,18.08-5.21-7.77-2.47-17.86-1.43-23.06.81Z"/></g><path class="cls-1" d="m326.24,24.02c1.3.52,2.82.68,4.23.7-.5-.16-1.39-.61-1.91-1.1.3-.02,1.11-.16,1.89-.48-2.91-.17-6.36-1.6-6.97-7.25-.74,2.73-.56,4.62.15,5.94-.8-.32-1.35-1.11-1.72-1.73-.05,1.13-.22,3.66,1.78,4.92,2,1.26,4.71.91,5.28.76-1.3-.21-2.38-1.03-2.72-1.75Z"/><path class="cls-1" d="m327.78,15.67c-.46-1.17,1.42-3,3.48-3.26,2.34-.29,3.38,1.47,3.31,3.24-.07,1.96-1.08,2.69-2.75,2.69-1.51,0-3.44-1.15-4.05-2.68Z"/><path class="cls-1" d="m399.65,108.01c-2.06.05-3.94-.3-7.09-1.86,4.06,3.92,7.89,5.9,15.04,6.93-5.99-9.75-12.26-23.53-15-27.75,1.71,4.87,5.73,15.69,7.05,22.68Z"/><path class="cls-1" d="m325.64,5.82c2.28-1.52,5.8-3.62,8.37-3.62,3.9,0,8.32,1.56,11.35,3.81-1.04.1-2.4.36-3.12.46-.23.72-.32,1.61-.34,2.66-1.91-1.91-8.9-6.97-16.27-3.31Z"/><path class="cls-1" d="m345.17,148.29c2.23-1.61,3.81-2.46,4.48-3.5.33.66.19.62.52,1.85.8-1.42,1.79-10.88,1.41-13.58-.39,3.2-1.35,6.47-1.69,6.85-.19-.95-.32-4.39-.6-4.96.33,3.88-.33,8.37-4.12,13.33Z"/><path class="cls-1" d="m345.55,77.73c5.16,9.29,21.28,24.75,29.78,30.3-1.89-2.09-3.22-3.87-3.9-5.13,6.91,5.16,23.68,13.26,36.17,15.96-15.97-6.13-30.69-13.37-42.38-23.12-6.14-5.12-14.58-11.79-19.67-18.02Z"/><path class="cls-1" d="m387.3,75.5c-5.87-16.51-24.26-37.74-35.55-39.18-.67,2.99-1.84,7.18-3.81,9.46.4-1.77-.25-6.25-.69-7.22h0c-1.35,5.78-4.21,11.07-6.85,15.53,1.46,2.86,3.93,5.73,7.67,9.35-2.15-4.17-2.95-8.29-3.1-11.61,5.78.87,12.9,3.52,16.8,10.29-1.71-5.49-3.11-8.97-6.06-12.58,5.67.86,21.5,10.63,31.59,25.96Z"/><path class="cls-1" d="m368.38,148.78c1.33-5.74,2.44-17.43,4.65-22.15.64-1.37,3-3.17,4.26-3.95-2.14,2.8-5.77,15.12-8.91,26.1Z"/><path class="cls-1" d="m353.57,130.6c-2.76-1.83-9.22-5.61-13.04-7.98,3.12,2.55,8.46,6.52,12.86,9.54.04-.53.1-1.06.18-1.56Z"/><path class="cls-1" d="m375.21,145.93c1.66,1.59,3.19,3.18,4.59,4.74,5.27,3.17,12.22,8.6,19.57,13.49-4.76-4.79-14.05-11.71-24.17-18.23Z"/></g><path d="m350.59,10.07c1.68-.6,3.48-.74,5.24-.68,1.76.08,3.52.36,5.18,1.01-1.78.09-3.5-.01-5.22-.07-1.72-.08-3.43-.12-5.2-.25Z"/><path d="m350.01,12.13c1.29-.53,2.67-.7,4.03-.7,1.36.02,2.75.21,4.01.82-1.39.12-2.69.11-4.02.11-1.33-.02-2.64-.03-4.02-.23Z"/><path d="m349.87,14.46c1-.5,2.05-.68,3.11-.77,1.05-.04,2.16-.03,3.18.49-.54.09-1.05.22-1.57.28-.52.08-1.03.12-1.55.16-1.04.05-2.08.06-3.17-.17Z"/><path d="m347.72,20.28c.89,1.23,2.4,1.17,3.69.97.66-.13,1.33-.29,1.98-.53.68-.23,1.4-.43,2.09-.63,1.41-.36,2.84-.65,4.28-.83,1.44-.19,2.9-.31,4.37-.22-2.76.98-5.53,1.69-8.29,2.41l-2.07.54c-.73.19-1.48.33-2.25.34-.77.03-1.56-.08-2.29-.38-.72-.31-1.37-.92-1.5-1.67Z"/><path d="m333.54,14.57c-.19.48-.66.82-1.2.82-.72,0-1.3-.58-1.3-1.3,0-.35.14-.67.37-.91-.06,0-.11,0-.17,0-1.52.19-2.91,1.54-2.57,2.4.45,1.13,1.87,1.98,2.99,1.98,1.23,0,1.97-.54,2.03-1.99.01-.35-.03-.69-.14-1.01Z"/></g><path d="m396.75,265.57h-2.55,0c-4.78,0-6.56-3.57-6.56-8.86v-41.62c0-5.28,1.78-8.85,6.56-8.85h2.55c.69-.33.75-5.4-.24-5.84h-36.1c-.99.43-.93,5.51-.24,5.84h2.58c4.44,0,6.29,3.09,6.53,7.76v43.8c-.24,4.68-2.09,7.76-6.53,7.76h0s-2.58,0-2.58,0c-.69.33-.75,5.4.24,5.84h36.1c.99-.43.93-5.51.24-5.84Z"/><path d="m558.03,265.57h-2.55,0c-4.78,0-6.56-3.57-6.56-8.86v-41.62c0-5.28,1.78-8.85,6.56-8.85h2.55c.69-.33.75-5.4-.24-5.84h-36.1c-.99.43-.93,5.51-.24,5.84h2.58c4.44,0,6.29,3.09,6.53,7.76v43.8c-.24,4.68-2.09,7.76-6.53,7.76h0s-2.58,0-2.58,0c-.69.33-.75,5.4.24,5.84h36.1c.99-.43.93-5.51.24-5.84Z"/><path d="m237.2,247.09l-1.34,4.5c-4.62,12.52-13.61,13.99-18.29,13.99h-5.99c-4.78,0-6.56-3.57-6.56-8.85v-41.62c0-5.28,1.78-8.85,6.56-8.85h2.55c.69-.33.75-5.4-.24-5.84h-36.1c-.99.43-.93,5.51-.24,5.84h2.58c4.44,0,6.29,3.09,6.53,7.76v43.8c-.24,4.68-2.09,7.76-6.53,7.76h0s-2.58,0-2.58,0c-.69.33-.75,5.4.24,5.84h38.6s0,0,0,0h19.37l7.27-24.32h-5.84Z"/><path d="m94.19,179.45h-29.09c-.99.43-.93,5.51-.24,5.84h2.39c1.11,0,3.11.16,3.58.39,1.81.89,1.61,3.48-.19,8.13l.05-.02-18.71,49.14-19.59-52.28c-.71-2.68-.23-4.31,1.12-4.97.47-.23,2.47-.39,3.58-.39.69-.33.75-5.4-.24-5.84H.75c-.99.43-.93,5.51-.24,5.84h1.44c1.5.02,3.16.15,4.44.92,2.58,1.55,4.26,5.43,6.74,10.99l29.23,74.21h9.88s29.57-74.27,29.57-74.27c2.47-5.53,4.16-9.38,6.73-10.92,1.28-.77,2.94-.9,4.44-.92h1.44c.69-.33.75-5.4-.24-5.84Z"/><path d="m161.6,265.57c-1.9,0-4.61-.27-6.72-2.06-2.2-1.88-4.17-6.33-6.05-11.17l-20.19-51.94h-9.91s-20.52,51.94-20.52,51.94h0c-1.06,2.68-4.6,9.93-6.56,11.29-2.45,1.71-5.33,1.94-7.88,1.94-.69.33-.75,5.4.24,5.84h29.09c.99-.43.93-5.51.24-5.84-3.16,0-7.11-1.74-5.45-6.28h-.1l1.02-2.92h20.06l1.15,3.33h-.09c1.58,4.39-2.79,5.88-4.89,5.88-.69.33-.75,5.4.24,5.84h36.1c.99-.43.93-5.51.24-5.84Zm-50.75-15.04l8.06-23.03,7.94,23.03h-16Z"/><path d="m665.58,265.57h-1.44c-1.5-.02-3.16-.15-4.44-.92-2.88-1.73-4.63-6.34-7.62-12.97l-28.35-70.56h-9.88s-28.6,70.44-28.6,70.44c-3.03,6.69-4.81,11.35-7.7,13.09-1.28.77-2.94.9-4.44.92h-1.44c-.69.33-.75,5.4.24,5.84h29.09c.99-.43.93-5.51.24-5.84h-2.39c-1.11,0-3.11-.16-3.58-.39-1.81-.89-1.61-3.48.19-8.13h0l2.98-7.72h31.11l4.21,11.08c.63,2.55.14,4.12-1.17,4.76-.47.23-2.47.39-3.58.39-.69.33-.75,5.4.24,5.84h36.1c.99-.43.93-5.51.24-5.84Zm-64.62-22.77l13.15-34.04,12.94,34.04h-26.1Z"/><g><path d="m292.33,265.57h-2.55,0c-4.78,0-6.56-3.57-6.56-8.86v-41.62c0-5.28,1.78-8.85,6.56-8.85h2.55c.69-.33.75-5.4-.24-5.84h-36.1c-.99.43-.93,5.51-.24,5.84h2.58c4.44,0,6.29,3.09,6.53,7.76v43.8c-.24,4.68-2.09,7.76-6.53,7.76h0s-2.58,0-2.58,0c-.69.33-.75,5.4.24,5.84h36.1c.99-.43.93-5.51.24-5.84Z"/><path d="m335.56,263.04c3.62-1.17,5.52-2.4,7.05-3.77-4.59,2.03-11.78,2.21-15.73.04-2.56-1.41-5.89-4.51-8.03-6.97-2.71-3.11-12.4-17.8-19.73-21.32,4.74-4.43,9.19-9.15,12.88-13.55,3.38-3.95,8.65-11.23,16.22-11.23.99-.43.93-5.51.24-5.84h-29.56c-.69.33-.75,5.4.24,5.84,1.64,0,4.78.13,5.55,1.43.91,1.53-.72,5.42-2.29,7.66h0c-5.77,8.19-12.12,15.15-17.34,20.4v6.78s0,0,0,0h0c6.97,1.76,13.39,11.87,17.17,16.61,6.64,8.32,14.86,12.38,24.65,12.38,11.32,0,17.28-4.51,20.97-8.74-4.42,1.24-8.53,1.17-12.29.28Z"/></g><path d="m498.8,263.04c3.62-1.17,5.11-2.39,7.05-3.77-4.54,1.67-11.96,2.04-15.73.04-2.45-1.3-5.89-4.51-8.03-6.97-1.52-1.74-5.22-7.11-9.47-12.11,12.07-3.38,14.1-11.83,14.1-19.19,0-9.59-5.7-20.1-30.42-20.61v-.02h-36.86c-.99.43-.93,5.51-.24,5.84h2.58c4.44,0,6.29,3.09,6.53,7.76v43.8c-.24,4.68-2.09,7.76-6.53,7.76h0s-2.58,0-2.58,0c-.69.33-.75,5.4.24,5.84h36.1c.99-.43.93-5.51.24-5.84h-2.55,0c-4.78,0-6.56-3.57-6.56-8.86v-41.72c0-6.1,1.61-8.76,6.51-8.76h2.57c10.63,0,13.57,9.33,13.57,14.92s-3.19,14.75-11.83,14.75h-9.02v5.84h0c6.97,1.76,13.2,12.63,16.98,17.37,6.64,8.32,14.86,12.38,24.65,12.38,11.32,0,17.28-4.51,20.97-8.74-4.42,1.24-8.53,1.17-12.29.28Z"/></svg>